<svg width="160" height="138" viewBox="0 0 160 138" fill="none" xmlns="http://www.w3.org/2000/svg">
<path d="M11.2031 17.5033V16H18.5236V17.5033H11.2031Z" fill="#78F7A8" style="fill:#78F7A8;fill:color(display-p3 0.4706 0.9686 0.6588);fill-opacity:1;"/>
<path d="M51.0482 17.5033V16H58.3687V17.5033H51.0482Z" fill="#78F7A8" style="fill:#78F7A8;fill:color(display-p3 0.4706 0.9686 0.6588);fill-opacity:1;"/>
<path d="M90.8932 17.5033V16H98.2137V17.5033H90.8932Z" fill="#78F7A8" style="fill:#78F7A8;fill:color(display-p3 0.4706 0.9686 0.6588);fill-opacity:1;"/>
<path d="M14.079 38.7974V24.7447H15.6477V38.7974H14.079Z" fill="#78F7A8" style="fill:#78F7A8;fill:color(display-p3 0.4706 0.9686 0.6588);fill-opacity:1;"/>
<path d="M23.8115 30.1044L24.5959 27.5552H23.6481V25.3983H25.8051V27.3265L24.7593 30.1044H23.8115Z" fill="#78F7A8" style="fill:#78F7A8;fill:color(display-p3 0.4706 0.9686 0.6588);fill-opacity:1;"/>
<path d="M33.7728 30.1044L34.5571 27.5552H33.6094V25.3983H35.7663V27.3265L34.7205 30.1044H33.7728Z" fill="#78F7A8" style="fill:#78F7A8;fill:color(display-p3 0.4706 0.9686 0.6588);fill-opacity:1;"/>
<path d="M43.7341 30.1044L44.5184 27.5552H43.5707V25.3983H45.7276V27.3265L44.6818 30.1044H43.7341Z" fill="#78F7A8" style="fill:#78F7A8;fill:color(display-p3 0.4706 0.9686 0.6588);fill-opacity:1;"/>
<path d="M65.6828 25.1532L64.8985 27.7023H65.8462V29.8592H63.6893V27.9474L64.7351 25.1532H65.6828Z" fill="#78F7A8" style="fill:#78F7A8;fill:color(display-p3 0.4706 0.9686 0.6588);fill-opacity:1;"/>
<path d="M73.6178 30.1044L74.4022 27.5552H73.4544V25.3983H75.6114V27.3265L74.5656 30.1044H73.6178Z" fill="#78F7A8" style="fill:#78F7A8;fill:color(display-p3 0.4706 0.9686 0.6588);fill-opacity:1;"/>
<path d="M83.5791 30.1044L84.3634 27.5552H83.4157V25.3983H85.5726V27.3265L84.5269 30.1044H83.5791Z" fill="#78F7A8" style="fill:#78F7A8;fill:color(display-p3 0.4706 0.9686 0.6588);fill-opacity:1;"/>
<path d="M93.7691 38.7974V24.7447H95.3378V38.7974H93.7691Z" fill="#78F7A8" style="fill:#78F7A8;fill:color(display-p3 0.4706 0.9686 0.6588);fill-opacity:1;"/>
<path d="M14.079 59.7974V45.7447H15.6477V59.7974H14.079Z" fill="#78F7A8" style="fill:#78F7A8;fill:color(display-p3 0.4706 0.9686 0.6588);fill-opacity:1;"/>
<path d="M93.7691 59.7974V45.7447H95.3378V59.7974H93.7691Z" fill="#78F7A8" style="fill:#78F7A8;fill:color(display-p3 0.4706 0.9686 0.6588);fill-opacity:1;"/>
<path d="M28.0764 80.7974H26.5077L21.5729 66.7447H23.1416L28.0764 80.7974Z" fill="#78F7A8" style="fill:#78F7A8;fill:color(display-p3 0.4706 0.9686 0.6588);fill-opacity:1;"/>
<path d="M81.3405 80.7974L86.2753 66.7447H87.844L82.9091 80.7974H81.3405Z" fill="#78F7A8" style="fill:#78F7A8;fill:color(display-p3 0.4706 0.9686 0.6588);fill-opacity:1;"/>
<path d="M40.5313 95.5717V94.1338H47.6231V95.5717H40.5313ZM32.067 95.5717V94.1338H39.1424V95.5717H32.067Z" fill="#78F7A8" style="fill:#78F7A8;fill:color(display-p3 0.4706 0.9686 0.6588);fill-opacity:1;"/>
<path d="M51.0482 101.503V100H58.3687V101.503H51.0482Z" fill="#78F7A8" style="fill:#78F7A8;fill:color(display-p3 0.4706 0.9686 0.6588);fill-opacity:1;"/>
<path d="M70.4151 95.5717V94.1338H77.5069V95.5717H70.4151ZM61.9508 95.5717V94.1338H69.0262V95.5717H61.9508Z" fill="#78F7A8" style="fill:#78F7A8;fill:color(display-p3 0.4706 0.9686 0.6588);fill-opacity:1;"/>
</svg>
