<svg width="160" height="138" viewBox="0 0 160 138" fill="none" xmlns="http://www.w3.org/2000/svg">
<path d="M0.964111 11.9803V10.4769H8.84019V11.9803H0.964111ZM4.15049 15.1666V7.29056H5.65381V15.1666H4.15049Z" fill="#78F7A8" style="fill:#78F7A8;fill:color(display-p3 0.4706 0.9686 0.6588);fill-opacity:1;"/>
<path d="M12.2163 11.9966V10.4769H17.5106V11.9966H12.2163Z" fill="#78F7A8" style="fill:#78F7A8;fill:color(display-p3 0.4706 0.9686 0.6588);fill-opacity:1;"/>
<path d="M22.1775 11.9966V10.4769H27.4718V11.9966H22.1775Z" fill="#78F7A8" style="fill:#78F7A8;fill:color(display-p3 0.4706 0.9686 0.6588);fill-opacity:1;"/>
<path d="M32.1388 11.9966V10.4769H37.4331V11.9966H32.1388Z" fill="#78F7A8" style="fill:#78F7A8;fill:color(display-p3 0.4706 0.9686 0.6588);fill-opacity:1;"/>
<path d="M42.1001 11.9966V10.4769H47.3943V11.9966H42.1001Z" fill="#78F7A8" style="fill:#78F7A8;fill:color(display-p3 0.4706 0.9686 0.6588);fill-opacity:1;"/>
<path d="M52.0613 11.9966V10.4769H57.3556V11.9966H52.0613Z" fill="#78F7A8" style="fill:#78F7A8;fill:color(display-p3 0.4706 0.9686 0.6588);fill-opacity:1;"/>
<path d="M62.0226 11.9966V10.4769H67.3169V11.9966H62.0226Z" fill="#78F7A8" style="fill:#78F7A8;fill:color(display-p3 0.4706 0.9686 0.6588);fill-opacity:1;"/>
<path d="M71.9838 11.9966V10.4769H77.2781V11.9966H71.9838Z" fill="#78F7A8" style="fill:#78F7A8;fill:color(display-p3 0.4706 0.9686 0.6588);fill-opacity:1;"/>
<path d="M81.9451 11.9966V10.4769H87.2394V11.9966H81.9451Z" fill="#78F7A8" style="fill:#78F7A8;fill:color(display-p3 0.4706 0.9686 0.6588);fill-opacity:1;"/>
<path d="M91.9064 11.9966V10.4769H97.2007V11.9966H91.9064Z" fill="#78F7A8" style="fill:#78F7A8;fill:color(display-p3 0.4706 0.9686 0.6588);fill-opacity:1;"/>
<path d="M101.868 11.9966V10.4769H107.162V11.9966H101.868Z" fill="#78F7A8" style="fill:#78F7A8;fill:color(display-p3 0.4706 0.9686 0.6588);fill-opacity:1;"/>
<path d="M110.538 11.9803V10.4769H118.414V11.9803H110.538ZM113.724 15.1666V7.29056H115.228V15.1666H113.724Z" fill="#78F7A8" style="fill:#78F7A8;fill:color(display-p3 0.4706 0.9686 0.6588);fill-opacity:1;"/>
<path d="M4.11781 38.7974V24.7447H5.68649V38.7974H4.11781Z" fill="#78F7A8" style="fill:#78F7A8;fill:color(display-p3 0.4706 0.9686 0.6588);fill-opacity:1;"/>
<path d="M113.692 38.7974V24.7447H115.26V38.7974H113.692Z" fill="#78F7A8" style="fill:#78F7A8;fill:color(display-p3 0.4706 0.9686 0.6588);fill-opacity:1;"/>
<path d="M4.11781 59.7974V45.7447H5.68649V59.7974H4.11781Z" fill="#78F7A8" style="fill:#78F7A8;fill:color(display-p3 0.4706 0.9686 0.6588);fill-opacity:1;"/>
<path d="M36.9265 59.7974H32.6453V45.7447H36.9265V47.15H34.3121V58.3922H36.9265V59.7974Z" fill="#78F7A8" style="fill:#78F7A8;fill:color(display-p3 0.4706 0.9686 0.6588);fill-opacity:1;"/>
<path d="M54.7085 58.2614C53.7825 58.2614 52.9982 58.0272 52.3554 57.5588C51.7236 57.0904 51.2388 56.4041 50.9011 55.4999C50.5634 54.5957 50.3946 53.5009 50.3946 52.2155C50.3946 50.9083 50.5634 49.8026 50.9011 48.8984C51.2388 47.9942 51.7236 47.3079 52.3554 46.8395C52.9982 46.3711 53.7825 46.1369 54.7085 46.1369C55.6344 46.1369 56.4188 46.3711 57.0615 46.8395C57.7042 47.3079 58.189 47.9942 58.5158 48.8984C58.8535 49.8026 59.0223 50.9083 59.0223 52.2155C59.0223 53.5009 58.8535 54.5957 58.5158 55.4999C58.189 56.4041 57.7042 57.0904 57.0615 57.5588C56.4188 58.0272 55.6344 58.2614 54.7085 58.2614ZM54.7085 56.6601C55.2531 56.6601 55.7107 56.4967 56.0811 56.1699C56.4623 55.8431 56.751 55.3474 56.9471 54.6829C57.1432 54.0184 57.2412 53.1959 57.2412 52.2155C57.2412 51.2351 57.1432 50.4126 56.9471 49.7481C56.751 49.0727 56.4623 48.5716 56.0811 48.2448C55.7107 47.9071 55.2531 47.7382 54.7085 47.7382C54.1638 47.7382 53.7008 47.9071 53.3195 48.2448C52.9491 48.5716 52.6659 49.0727 52.4698 49.7481C52.2737 50.4126 52.1757 51.2351 52.1757 52.2155C52.1757 53.1959 52.2737 54.0184 52.4698 54.6829C52.6659 55.3474 52.9491 55.8431 53.3195 56.1699C53.7008 56.4967 54.1638 56.6601 54.7085 56.6601Z" fill="#78F7A8" style="fill:#78F7A8;fill:color(display-p3 0.4706 0.9686 0.6588);fill-opacity:1;"/>
<path d="M60.8787 58V46.3983H62.9703L66.7776 55.5653V46.3983H68.4607V58H66.3691L62.5618 48.833V58H60.8787Z" fill="#78F7A8" style="fill:#78F7A8;fill:color(display-p3 0.4706 0.9686 0.6588);fill-opacity:1;"/>
<path d="M82.4517 59.7974V58.3922H85.0661V47.15H82.4517V45.7447H86.7328V59.7974H82.4517Z" fill="#78F7A8" style="fill:#78F7A8;fill:color(display-p3 0.4706 0.9686 0.6588);fill-opacity:1;"/>
<path d="M113.692 59.7974V45.7447H115.26V59.7974H113.692Z" fill="#78F7A8" style="fill:#78F7A8;fill:color(display-p3 0.4706 0.9686 0.6588);fill-opacity:1;"/>
<path d="M4.11781 80.7974V66.7447H5.68649V80.7974H4.11781Z" fill="#78F7A8" style="fill:#78F7A8;fill:color(display-p3 0.4706 0.9686 0.6588);fill-opacity:1;"/>
<path d="M113.692 80.7974V66.7447H115.26V80.7974H113.692Z" fill="#78F7A8" style="fill:#78F7A8;fill:color(display-p3 0.4706 0.9686 0.6588);fill-opacity:1;"/>
<path d="M0.964111 95.9803V94.4769H8.84019V95.9803H0.964111ZM4.15049 99.1666V91.2906H5.65381V99.1666H4.15049Z" fill="#78F7A8" style="fill:#78F7A8;fill:color(display-p3 0.4706 0.9686 0.6588);fill-opacity:1;"/>
<path d="M12.2163 95.9966V94.4769H17.5106V95.9966H12.2163Z" fill="#78F7A8" style="fill:#78F7A8;fill:color(display-p3 0.4706 0.9686 0.6588);fill-opacity:1;"/>
<path d="M22.1775 95.9966V94.4769H27.4718V95.9966H22.1775Z" fill="#78F7A8" style="fill:#78F7A8;fill:color(display-p3 0.4706 0.9686 0.6588);fill-opacity:1;"/>
<path d="M32.1388 95.9966V94.4769H37.4331V95.9966H32.1388Z" fill="#78F7A8" style="fill:#78F7A8;fill:color(display-p3 0.4706 0.9686 0.6588);fill-opacity:1;"/>
<path d="M42.1001 95.9966V94.4769H47.3943V95.9966H42.1001Z" fill="#78F7A8" style="fill:#78F7A8;fill:color(display-p3 0.4706 0.9686 0.6588);fill-opacity:1;"/>
<path d="M52.0613 95.9966V94.4769H57.3556V95.9966H52.0613Z" fill="#78F7A8" style="fill:#78F7A8;fill:color(display-p3 0.4706 0.9686 0.6588);fill-opacity:1;"/>
<path d="M62.0226 95.9966V94.4769H67.3169V95.9966H62.0226Z" fill="#78F7A8" style="fill:#78F7A8;fill:color(display-p3 0.4706 0.9686 0.6588);fill-opacity:1;"/>
<path d="M71.9838 95.9966V94.4769H77.2781V95.9966H71.9838Z" fill="#78F7A8" style="fill:#78F7A8;fill:color(display-p3 0.4706 0.9686 0.6588);fill-opacity:1;"/>
<path d="M81.9451 95.9966V94.4769H87.2394V95.9966H81.9451Z" fill="#78F7A8" style="fill:#78F7A8;fill:color(display-p3 0.4706 0.9686 0.6588);fill-opacity:1;"/>
<path d="M91.9064 95.9966V94.4769H97.2007V95.9966H91.9064Z" fill="#78F7A8" style="fill:#78F7A8;fill:color(display-p3 0.4706 0.9686 0.6588);fill-opacity:1;"/>
<path d="M101.868 95.9966V94.4769H107.162V95.9966H101.868Z" fill="#78F7A8" style="fill:#78F7A8;fill:color(display-p3 0.4706 0.9686 0.6588);fill-opacity:1;"/>
<path d="M110.538 95.9803V94.4769H118.414V95.9803H110.538ZM113.724 99.1666V91.2906H115.228V99.1666H113.724Z" fill="#78F7A8" style="fill:#78F7A8;fill:color(display-p3 0.4706 0.9686 0.6588);fill-opacity:1;"/>
</svg>
