<svg width="160" height="138" viewBox="0 0 160 138" fill="none" xmlns="http://www.w3.org/2000/svg">
<path d="M41.0869 17.5033V16H48.4074V17.5033H41.0869Z" fill="#78F7A8" style="fill:#78F7A8;fill:color(display-p3 0.4706 0.9686 0.6588);fill-opacity:1;"/>
<path d="M51.0482 17.5033V16H58.3687V17.5033H51.0482Z" fill="#78F7A8" style="fill:#78F7A8;fill:color(display-p3 0.4706 0.9686 0.6588);fill-opacity:1;"/>
<path d="M61.0094 17.5033V16H68.3299V17.5033H61.0094Z" fill="#78F7A8" style="fill:#78F7A8;fill:color(display-p3 0.4706 0.9686 0.6588);fill-opacity:1;"/>
<path d="M70.9707 17.5033V16H78.2912V17.5033H70.9707Z" fill="#78F7A8" style="fill:#78F7A8;fill:color(display-p3 0.4706 0.9686 0.6588);fill-opacity:1;"/>
<path d="M31.5342 38.7974L36.469 24.7447H38.0376L33.1028 38.7974H31.5342Z" fill="#78F7A8" style="fill:#78F7A8;fill:color(display-p3 0.4706 0.9686 0.6588);fill-opacity:1;"/>
<path d="M71.3792 38.7974L76.314 24.7447H77.8827L72.9479 38.7974H71.3792Z" fill="#78F7A8" style="fill:#78F7A8;fill:color(display-p3 0.4706 0.9686 0.6588);fill-opacity:1;"/>
<path d="M21.5729 59.7974L26.5077 45.7447H28.0764L23.1416 59.7974H21.5729Z" fill="#78F7A8" style="fill:#78F7A8;fill:color(display-p3 0.4706 0.9686 0.6588);fill-opacity:1;"/>
<path d="M61.4179 59.7974L66.3527 45.7447H67.9214L62.9866 59.7974H61.4179Z" fill="#78F7A8" style="fill:#78F7A8;fill:color(display-p3 0.4706 0.9686 0.6588);fill-opacity:1;"/>
<path d="M70.9707 59.5033V58H78.2912V59.5033H70.9707Z" fill="#78F7A8" style="fill:#78F7A8;fill:color(display-p3 0.4706 0.9686 0.6588);fill-opacity:1;"/>
<path d="M80.932 59.5033V58H88.2525V59.5033H80.932Z" fill="#78F7A8" style="fill:#78F7A8;fill:color(display-p3 0.4706 0.9686 0.6588);fill-opacity:1;"/>
<path d="M90.8932 59.5033V58H98.2137V59.5033H90.8932Z" fill="#78F7A8" style="fill:#78F7A8;fill:color(display-p3 0.4706 0.9686 0.6588);fill-opacity:1;"/>
<path d="M11.6116 80.7974L16.5464 66.7447H18.1151L13.1803 80.7974H11.6116Z" fill="#78F7A8" style="fill:#78F7A8;fill:color(display-p3 0.4706 0.9686 0.6588);fill-opacity:1;"/>
<path d="M21.1644 80.5033V79H28.4849V80.5033H21.1644Z" fill="#78F7A8" style="fill:#78F7A8;fill:color(display-p3 0.4706 0.9686 0.6588);fill-opacity:1;"/>
<path d="M31.1256 80.5033V79H38.4461V80.5033H31.1256Z" fill="#78F7A8" style="fill:#78F7A8;fill:color(display-p3 0.4706 0.9686 0.6588);fill-opacity:1;"/>
<path d="M83.4811 79V76.8431H85.7034V79H83.4811Z" fill="#78F7A8" style="fill:#78F7A8;fill:color(display-p3 0.4706 0.9686 0.6588);fill-opacity:1;"/>
<path d="M94.7332 73.722V69.735L93.1155 69.7513V68.8036H93.5404C94.0197 68.8036 94.3846 68.6783 94.6352 68.4278C94.8857 68.1772 95.011 67.8286 95.011 67.382H95.9914V73.722H94.7332Z" fill="#78F7A8" style="fill:#78F7A8;fill:color(display-p3 0.4706 0.9686 0.6588);fill-opacity:1;"/>
<path d="M41.4954 101.797L46.4302 87.7447H47.9989L43.0641 101.797H41.4954Z" fill="#78F7A8" style="fill:#78F7A8;fill:color(display-p3 0.4706 0.9686 0.6588);fill-opacity:1;"/>
<path d="M61.0094 101.503V100H68.3299V101.503H61.0094Z" fill="#78F7A8" style="fill:#78F7A8;fill:color(display-p3 0.4706 0.9686 0.6588);fill-opacity:1;"/>
<path d="M74.8107 94.7221V90.735L73.193 90.7513V89.8036H73.6178C74.0972 89.8036 74.4621 89.6783 74.7127 89.4278C74.9632 89.1772 75.0885 88.8286 75.0885 88.382H76.0689V94.7221H74.8107Z" fill="#78F7A8" style="fill:#78F7A8;fill:color(display-p3 0.4706 0.9686 0.6588);fill-opacity:1;"/>
<path d="M31.5342 122.797L36.469 108.745H38.0376L33.1028 122.797H31.5342Z" fill="#78F7A8" style="fill:#78F7A8;fill:color(display-p3 0.4706 0.9686 0.6588);fill-opacity:1;"/>
<path d="M42.1 116.997V115.477H47.3943V116.997H42.1Z" fill="#78F7A8" style="fill:#78F7A8;fill:color(display-p3 0.4706 0.9686 0.6588);fill-opacity:1;"/>
<path d="M53.6953 114.104L54.4797 111.555H53.5319V109.398H55.6888V111.326L54.6431 114.104H53.6953Z" fill="#78F7A8" style="fill:#78F7A8;fill:color(display-p3 0.4706 0.9686 0.6588);fill-opacity:1;"/>
</svg>
