<svg width="160" height="112" viewBox="0 0 160 112" fill="none" xmlns="http://www.w3.org/2000/svg">
<path d="M63.5585 16V13.8431H65.7808V16H63.5585Z" fill="#78F7A8" style="fill:#78F7A8;fill:color(display-p3 0.4706 0.9686 0.6588);fill-opacity:1;"/>
<path d="M89.8311 11.5881V10.1338H97.2823V11.5881H89.8311ZM72.2161 11.5881V10.1338H79.651V11.5881H72.2161ZM81.04 11.5881V10.1338H88.4422V11.5881H81.04Z" fill="#78F7A8" style="fill:#78F7A8;fill:color(display-p3 0.4706 0.9686 0.6588);fill-opacity:1;"/>
<path d="M103.404 16V13.8431H105.626V16H103.404Z" fill="#78F7A8" style="fill:#78F7A8;fill:color(display-p3 0.4706 0.9686 0.6588);fill-opacity:1;"/>
<path d="M23.7135 37V34.8431H25.9358V37H23.7135Z" fill="#78F7A8" style="fill:#78F7A8;fill:color(display-p3 0.4706 0.9686 0.6588);fill-opacity:1;"/>
<path d="M40.5313 32.5717V31.1338H47.6231V32.5717H40.5313ZM32.067 32.5717V31.1338H39.1424V32.5717H32.067Z" fill="#78F7A8" style="fill:#78F7A8;fill:color(display-p3 0.4706 0.9686 0.6588);fill-opacity:1;"/>
<path d="M55.0679 38.7974C54.3163 37.6536 53.7498 36.4934 53.3685 35.3169C52.9981 34.1404 52.8129 32.9585 52.8129 31.7711C52.8129 29.3636 53.5646 27.0215 55.0679 24.7447H56.6039C55.2422 27.0977 54.5614 29.4398 54.5614 31.7711C54.5614 32.9367 54.7302 34.1077 55.0679 35.2843C55.4165 36.4499 55.9285 37.6209 56.6039 38.7974H55.0679Z" fill="#78F7A8" style="fill:#78F7A8;fill:color(display-p3 0.4706 0.9686 0.6588);fill-opacity:1;"/>
<path d="M114.117 38.7974H112.581C113.256 37.6209 113.762 36.4499 114.1 35.2843C114.449 34.1077 114.623 32.9367 114.623 31.7711C114.623 29.4398 113.942 27.0977 112.581 24.7447H114.117C115.62 27.0215 116.371 29.3636 116.371 31.7711C116.371 32.9585 116.181 34.1404 115.8 35.3169C115.429 36.4934 114.868 37.6536 114.117 38.7974Z" fill="#78F7A8" style="fill:#78F7A8;fill:color(display-p3 0.4706 0.9686 0.6588);fill-opacity:1;"/>
<path d="M130.183 32.5717V31.1338H137.274V32.5717H130.183ZM121.718 32.5717V31.1338H128.794V32.5717H121.718Z" fill="#78F7A8" style="fill:#78F7A8;fill:color(display-p3 0.4706 0.9686 0.6588);fill-opacity:1;"/>
<path d="M143.249 37V34.8431H145.471V37H143.249Z" fill="#78F7A8" style="fill:#78F7A8;fill:color(display-p3 0.4706 0.9686 0.6588);fill-opacity:1;"/>
<path d="M15.2229 59.7974C14.4712 58.6536 13.9047 57.4934 13.5235 56.3169C13.1531 55.1404 12.9679 53.9585 12.9679 52.7711C12.9679 50.3636 13.7196 48.0215 15.2229 45.7447H16.7589C15.3972 48.0977 14.7163 50.4398 14.7163 52.7711C14.7163 53.9367 14.8852 55.1077 15.2229 56.2843C15.5715 57.4499 16.0835 58.6209 16.7589 59.7974H15.2229Z" fill="#78F7A8" style="fill:#78F7A8;fill:color(display-p3 0.4706 0.9686 0.6588);fill-opacity:1;"/>
<path d="M45.1067 59.7974C44.355 58.6536 43.7885 57.4934 43.4073 56.3169C43.0369 55.1404 42.8517 53.9585 42.8517 52.7711C42.8517 50.3636 43.6033 48.0215 45.1067 45.7447H46.6427C45.281 48.0977 44.6001 50.4398 44.6001 52.7711C44.6001 53.9367 44.769 55.1077 45.1067 56.2843C45.4553 57.4499 45.9673 58.6209 46.6427 59.7974H45.1067Z" fill="#78F7A8" style="fill:#78F7A8;fill:color(display-p3 0.4706 0.9686 0.6588);fill-opacity:1;"/>
<path d="M64.3102 59.7974H62.7742C63.4496 58.6209 63.9562 57.4499 64.2939 56.2843C64.6425 55.1077 64.8168 53.9367 64.8168 52.7711C64.8168 50.4398 64.1359 48.0977 62.7742 45.7447H64.3102C65.8135 48.0215 66.5652 50.3636 66.5652 52.7711C66.5652 53.9585 66.3745 55.1404 65.9933 56.3169C65.6229 57.4934 65.0619 58.6536 64.3102 59.7974Z" fill="#78F7A8" style="fill:#78F7A8;fill:color(display-p3 0.4706 0.9686 0.6588);fill-opacity:1;"/>
<path d="M71.9838 53.9966V52.4769H77.2781V53.9966H71.9838Z" fill="#78F7A8" style="fill:#78F7A8;fill:color(display-p3 0.4706 0.9686 0.6588);fill-opacity:1;"/>
<path d="M84.9517 59.7974C84.2001 58.6536 83.6336 57.4934 83.2523 56.3169C82.8819 55.1404 82.6967 53.9585 82.6967 52.7711C82.6967 50.3636 83.4484 48.0215 84.9517 45.7447H86.4877C85.126 48.0977 84.4452 50.4398 84.4452 52.7711C84.4452 53.9367 84.614 55.1077 84.9517 56.2843C85.3003 57.4499 85.8123 58.6209 86.4877 59.7974H84.9517Z" fill="#78F7A8" style="fill:#78F7A8;fill:color(display-p3 0.4706 0.9686 0.6588);fill-opacity:1;"/>
<path d="M104.155 59.7974H102.619C103.295 58.6209 103.801 57.4499 104.139 56.2843C104.488 55.1077 104.662 53.9367 104.662 52.7711C104.662 50.4398 103.981 48.0977 102.619 45.7447H104.155C105.659 48.0215 106.41 50.3636 106.41 52.7711C106.41 53.9585 106.22 55.1404 105.838 56.3169C105.468 57.4934 104.907 58.6536 104.155 59.7974Z" fill="#78F7A8" style="fill:#78F7A8;fill:color(display-p3 0.4706 0.9686 0.6588);fill-opacity:1;"/>
<path d="M134.039 59.7974H132.503C133.178 58.6209 133.685 57.4499 134.023 56.2843C134.371 55.1077 134.546 53.9367 134.546 52.7711C134.546 50.4398 133.865 48.0977 132.503 45.7447H134.039C135.542 48.0215 136.294 50.3636 136.294 52.7711C136.294 53.9585 136.103 55.1404 135.722 56.3169C135.352 57.4934 134.791 58.6536 134.039 59.7974Z" fill="#78F7A8" style="fill:#78F7A8;fill:color(display-p3 0.4706 0.9686 0.6588);fill-opacity:1;"/>
<path d="M153.962 59.7974H152.426C153.101 58.6209 153.608 57.4499 153.945 56.2843C154.294 55.1077 154.468 53.9367 154.468 52.7711C154.468 50.4398 153.787 48.0977 152.426 45.7447H153.962C155.465 48.0215 156.217 50.3636 156.217 52.7711C156.217 53.9585 156.026 55.1404 155.645 56.3169C155.274 57.4934 154.713 58.6536 153.962 59.7974Z" fill="#78F7A8" style="fill:#78F7A8;fill:color(display-p3 0.4706 0.9686 0.6588);fill-opacity:1;"/>
<path d="M24.2364 72.7743L24.024 68.6892V67.3983H25.6253V68.6892L25.4129 72.7743H24.2364Z" fill="#78F7A8" style="fill:#78F7A8;fill:color(display-p3 0.4706 0.9686 0.6588);fill-opacity:1;"/>
<path d="M40.5313 74.5717V73.1338H47.6231V74.5717H40.5313ZM32.067 74.5717V73.1338H39.1424V74.5717H32.067Z" fill="#78F7A8" style="fill:#78F7A8;fill:color(display-p3 0.4706 0.9686 0.6588);fill-opacity:1;"/>
<path d="M55.0679 80.7974C54.3163 79.6536 53.7498 78.4934 53.3685 77.3169C52.9981 76.1404 52.8129 74.9585 52.8129 73.7711C52.8129 71.3636 53.5646 69.0215 55.0679 66.7447H56.6039C55.2422 69.0977 54.5614 71.4398 54.5614 73.7711C54.5614 74.9367 54.7302 76.1077 55.0679 77.2842C55.4165 78.4499 55.9285 79.6209 56.6039 80.7974H55.0679Z" fill="#78F7A8" style="fill:#78F7A8;fill:color(display-p3 0.4706 0.9686 0.6588);fill-opacity:1;"/>
<path d="M114.117 80.7974H112.581C113.256 79.6209 113.762 78.4499 114.1 77.2842C114.449 76.1077 114.623 74.9367 114.623 73.7711C114.623 71.4398 113.942 69.0977 112.581 66.7447H114.117C115.62 69.0215 116.371 71.3636 116.371 73.7711C116.371 74.9585 116.181 76.1404 115.8 77.3169C115.429 78.4934 114.868 79.6536 114.117 80.7974Z" fill="#78F7A8" style="fill:#78F7A8;fill:color(display-p3 0.4706 0.9686 0.6588);fill-opacity:1;"/>
<path d="M130.183 74.5717V73.1338H137.274V74.5717H130.183ZM121.718 74.5717V73.1338H128.794V74.5717H121.718Z" fill="#78F7A8" style="fill:#78F7A8;fill:color(display-p3 0.4706 0.9686 0.6588);fill-opacity:1;"/>
<path d="M143.772 72.7743L143.559 68.6892V67.3983H145.16V68.6892L144.948 72.7743H143.772Z" fill="#78F7A8" style="fill:#78F7A8;fill:color(display-p3 0.4706 0.9686 0.6588);fill-opacity:1;"/>
<path d="M64.0814 93.7743L63.869 89.6892V88.3983H65.4704V89.6892L65.2579 93.7743H64.0814Z" fill="#78F7A8" style="fill:#78F7A8;fill:color(display-p3 0.4706 0.9686 0.6588);fill-opacity:1;"/>
<path d="M89.8311 95.5881V94.1338H97.2823V95.5881H89.8311ZM72.2161 95.5881V94.1338H79.651V95.5881H72.2161ZM81.04 95.5881V94.1338H88.4422V95.5881H81.04Z" fill="#78F7A8" style="fill:#78F7A8;fill:color(display-p3 0.4706 0.9686 0.6588);fill-opacity:1;"/>
<path d="M103.926 93.7743L103.714 89.6892V88.3983H105.315V89.6892L105.103 93.7743H103.926Z" fill="#78F7A8" style="fill:#78F7A8;fill:color(display-p3 0.4706 0.9686 0.6588);fill-opacity:1;"/>
</svg>
